<svg xmlns="http://www.w3.org/2000/svg" viewBox="0 0 64 64"><g id="_08-Justice" data-name="08-Justice"><path d="M38,13v2a2.006,2.006,0,0,1-2,2H28a2.006,2.006,0,0,1-2-2V7a2.006,2.006,0,0,1,2-2h8a2.006,2.006,0,0,1,2,2v6Zm-4-2a2,2,0,1,0-2,2A2.006,2.006,0,0,0,34,11Z" style="fill:#f2f6fc"/><path d="M28,15V7a2.006,2.006,0,0,1,2-2H28a2.006,2.006,0,0,0-2,2v8a2.006,2.006,0,0,0,2,2h2A2.006,2.006,0,0,1,28,15Z" style="fill:#e9edf5"/><path d="M36,11a2.006,2.006,0,0,0-2-2,1.975,1.975,0,0,0-1,.279,1.981,1.981,0,0,1,0,3.442A1.975,1.975,0,0,0,34,13,2.006,2.006,0,0,0,36,11Z" style="fill:#e9edf5"/><circle cx="32" cy="11" r="2" style="fill:#00c8ff"/><path d="M5,9v4a1.955,1.955,0,0,1-.59,1.41A1.955,1.955,0,0,1,3,15a2.006,2.006,0,0,1-2-2V9A2,2,0,0,1,5,9Z" style="fill:#e66441"/><path d="M63,9v4a2,2,0,0,1-4,0V9a2.015,2.015,0,0,1,2-2A2.006,2.006,0,0,1,63,9Z" style="fill:#e66441"/><path d="M36,5H28s0-4,4-4S36,5,36,5Z" style="fill:#e66441"/><path d="M33,1.106A4.924,4.924,0,0,0,32,1c-4,0-4,4-4,4h2S30.011,1.715,33,1.106Z" style="fill:#b24535"/><rect x="11" y="9" width="4" height="4" style="fill:#e66441"/><rect x="49" y="9" width="4" height="4" style="fill:#e66441"/><rect x="53" y="9" width="6" height="4" style="fill:#dce1eb"/><path d="M39,36H63a12,12,0,0,1-24,0Z" style="fill:#ffd200"/><path d="M43,36H39A11.934,11.934,0,0,0,53,47.82,11.989,11.989,0,0,1,43,36Z" style="fill:#ffa200"/><polygon points="50 59 50 63 14 63 14 59 16 59 48 59 50 59" style="fill:#b24535"/><rect x="38" y="9" width="11" height="4" style="fill:#dce1eb"/><polygon points="48 55 48 59 16 59 16 55 29 55 35 55 48 55" style="fill:#e66441"/><path d="M18,55H16v4H48V57H20A2,2,0,0,1,18,55Z" style="fill:#d65b3e"/><polygon points="35 51 35 55 29 55 29 51 30 51 34 51 35 51" style="fill:#9196aa"/><polygon points="35 17 35 29 34 29 30 29 29 29 29 17 35 17" style="fill:#9196aa"/><rect x="30" y="29" width="4" height="22" style="fill:#dce1eb"/><rect x="15" y="9" width="11" height="4" style="fill:#dce1eb"/><path d="M1,36H25A12,12,0,0,1,1,36Z" style="fill:#ffd200"/><rect x="5" y="9" width="6" height="4" style="fill:#dce1eb"/><path d="M5,36H1A11.934,11.934,0,0,0,15,47.82,11.989,11.989,0,0,1,5,36Z" style="fill:#ffa200"/><path d="M50,64H14a1,1,0,0,1-1-1V59a1,1,0,0,1,1-1H50a1,1,0,0,1,1,1v4A1,1,0,0,1,50,64ZM15,62H49V60H15Z"/><path d="M49,59H47V56H17v3H15V55a1,1,0,0,1,1-1H48a1,1,0,0,1,1,1Z"/><path d="M13,49A13.015,13.015,0,0,1,0,36a1,1,0,0,1,1-1H25a1,1,0,0,1,1,1A13.015,13.015,0,0,1,13,49ZM2.045,37a11,11,0,0,0,21.91,0Z"/><path d="M51,49A13.015,13.015,0,0,1,38,36a1,1,0,0,1,1-1H63a1,1,0,0,1,1,1A13.015,13.015,0,0,1,51,49ZM40.045,37a11,11,0,0,0,21.91,0Z"/><path d="M22.293,36.707,13,27.414,3.707,36.707,2.293,35.293l10-10a1,1,0,0,1,1.414,0l10,10Z"/><path d="M60.293,36.707,51,27.414l-9.293,9.293-1.414-1.414,10-10a1,1,0,0,1,1.414,0l10,10Z"/><path d="M32,14a3,3,0,1,1,3-3A3,3,0,0,1,32,14Zm0-4a1,1,0,1,0,1,1A1,1,0,0,0,32,10Z"/><path d="M36,18H28a3,3,0,0,1-3-3V7a3,3,0,0,1,3-3h8a3,3,0,0,1,3,3v8A3,3,0,0,1,36,18ZM28,6a1,1,0,0,0-1,1v8a1,1,0,0,0,1,1h8a1,1,0,0,0,1-1V7a1,1,0,0,0-1-1Z"/><path d="M29,5.005,27,5a4.821,4.821,0,0,1,5-5,4.821,4.821,0,0,1,5,5H35a3,3,0,1,0-6,0Z"/><path d="M35,30H29a1,1,0,0,1-1-1V17h2V28h4V17h2V29A1,1,0,0,1,35,30Z"/><path d="M36,55H34V52H30v3H28V51a1,1,0,0,1,1-1h6a1,1,0,0,1,1,1Z"/><rect x="29" y="29" width="2" height="22"/><rect x="33" y="29" width="2" height="22"/><path d="M61,16a3,3,0,0,1-3-3V9a3,3,0,0,1,6,0v4A3,3,0,0,1,61,16Zm0-8a1,1,0,0,0-1,1v4a1,1,0,0,0,2,0V9A1,1,0,0,0,61,8Z"/><rect x="38" y="8" width="21" height="2"/><rect x="38" y="12" width="21" height="2"/><path d="M3,16a3,3,0,0,1-3-3V9A3,3,0,0,1,6,9v4A3,3,0,0,1,3,16ZM3,8A1,1,0,0,0,2,9v4a1,1,0,0,0,2,0V9A1,1,0,0,0,3,8Z"/><rect x="5" y="12" width="21" height="2"/><rect x="5" y="8" width="21" height="2"/><rect x="12" y="13" width="2" height="13"/><rect x="50" y="13" width="2" height="13"/><rect x="52" y="9" width="2" height="4"/><rect x="48" y="9" width="2" height="4"/><rect x="14" y="9" width="2" height="4"/><rect x="10" y="9" width="2" height="4"/><path d="M13,45a8.993,8.993,0,0,1-2.25-.284l.5-1.936A7.023,7.023,0,0,0,13,43Z"/><path d="M8.639,43.875a9.048,9.048,0,0,1-3.984-4.5l1.853-.75a7.04,7.04,0,0,0,3.1,3.5Z"/><path d="M51,45a8.993,8.993,0,0,1-2.25-.284l.5-1.936A7.023,7.023,0,0,0,51,43Z"/><path d="M46.5,43.8a9.051,9.051,0,0,1-3.845-4.42l1.853-.75A7.059,7.059,0,0,0,47.5,42.064Z"/></g></svg>